<svg width="96" height="95" viewBox="0 0 96 95" fill="none" xmlns="http://www.w3.org/2000/svg">
<rect width="96" height="95" rx="14" fill="#35B7A1"/>
<path d="M68.7012 54.9452C68.7328 54.8726 68.7591 54.798 68.7801 54.7217C70.4074 50.0424 70.4066 44.951 68.778 40.2722C68.7577 40.1995 68.7326 40.1283 68.7028 40.059C67.1661 35.8026 64.3554 32.1224 60.6529 29.5189C56.9504 26.9154 52.5357 25.5149 48.0089 25.5077L48 25.5L47.9911 25.5077C43.4648 25.5149 39.0504 26.9152 35.3481 29.5182C31.6458 32.1212 28.8351 35.8008 27.298 40.0566C27.2673 40.1277 27.2415 40.2008 27.2209 40.2754C25.5921 44.9571 25.5931 50.0515 27.2237 54.7325C27.2434 54.8022 27.2675 54.8706 27.296 54.9372C28.8321 59.1945 31.6427 62.8755 35.3455 65.4797C39.0482 68.0839 43.4635 69.4848 47.9909 69.4921L48 69.5L48.0091 69.4921C52.535 69.4849 56.949 68.0848 60.6511 65.4822C64.3532 62.8795 67.1639 59.2005 68.7012 54.9452ZM48 30.0665C50.4563 32.6108 52.3024 35.6796 53.399 39.0413H42.601C43.6976 35.6796 45.5437 32.6108 48 30.0665ZM42.6011 55.9585H53.3989C52.3023 59.3201 50.4562 62.3889 48 64.9333C45.5438 62.3889 43.6977 59.3201 42.6011 55.9585ZM41.7151 52.575C41.0693 49.2224 41.0693 45.7774 41.7151 42.4248H54.2849C54.9307 45.7774 54.9307 49.2224 54.2849 52.575H41.7151ZM57.7368 42.4248H65.9117C66.85 45.7432 66.85 49.2566 65.9117 52.575H57.7368C58.2929 49.2144 58.2929 45.7854 57.7368 42.4248ZM64.5787 39.0413H56.9709C55.9576 35.4765 54.2198 32.1588 51.8659 29.2957C54.5752 29.8761 57.1215 31.0517 59.3203 32.7372C61.5191 34.4228 63.3152 36.5762 64.5787 39.0413ZM51.8657 65.7041C54.2196 62.841 55.9575 59.5233 56.9708 55.9585H64.5787C63.3153 58.4237 61.5191 60.577 59.3203 62.2626C57.1215 63.9482 54.5751 65.1237 51.8657 65.7041Z" fill="white"/>
</svg>
