<svg width="96" height="95" viewBox="0 0 96 95" fill="none" xmlns="http://www.w3.org/2000/svg">
<rect width="96" height="95" rx="14" fill="#F3794D"/>
<path d="M60.965 35.037C58.9133 32.9767 56.3997 31.4355 53.633 30.5416C50.8662 29.6476 47.926 29.4266 45.0567 29.897C41.356 30.5186 37.9326 32.2531 35.2427 34.8695C32.5527 37.4859 30.724 40.8599 30 44.542C29.2707 48.3433 29.7679 52.2782 31.42 55.7786L30.4017 60.8336C30.272 61.4872 30.3053 62.1626 30.4989 62.8002C30.6924 63.4378 31.0402 64.0179 31.5113 64.489C31.9825 64.9602 32.5625 65.3079 33.2001 65.5014C33.8377 65.695 34.5131 65.7284 35.1667 65.5986L40.215 64.5886C42.6489 65.7394 45.3079 66.3354 48 66.3336C49.1609 66.3332 50.3192 66.2249 51.46 66.0103C55.1437 65.2853 58.5189 63.4547 61.1356 60.7626C63.7524 58.0704 65.4865 54.6447 66.1067 50.942C66.5772 48.073 66.3562 45.1332 65.4619 42.3668C64.5676 39.6005 63.0259 37.0876 60.965 35.037Z" fill="white"/>
<path d="M49.6665 56.3337H47.9998C47.5578 56.3337 47.1339 56.1581 46.8213 55.8455C46.5088 55.5329 46.3332 55.109 46.3332 54.667V48.0003C45.8911 48.0003 45.4672 47.8247 45.1547 47.5122C44.8421 47.1996 44.6665 46.7757 44.6665 46.3337C44.6665 45.8916 44.8421 45.4677 45.1547 45.1551C45.4672 44.8426 45.8911 44.667 46.3332 44.667H47.9998C48.4419 44.667 48.8658 44.8426 49.1783 45.1551C49.4909 45.4677 49.6665 45.8916 49.6665 46.3337V53.0003C50.1085 53.0003 50.5325 53.1759 50.845 53.4885C51.1576 53.801 51.3332 54.225 51.3332 54.667C51.3332 55.109 51.1576 55.5329 50.845 55.8455C50.5325 56.1581 50.1085 56.3337 49.6665 56.3337Z" fill="#F3794D"/>
<path d="M48.0002 43.0003C48.9206 43.0003 49.6668 42.2541 49.6668 41.3337C49.6668 40.4132 48.9206 39.667 48.0002 39.667C47.0797 39.667 46.3335 40.4132 46.3335 41.3337C46.3335 42.2541 47.0797 43.0003 48.0002 43.0003Z" fill="#F3794D"/>
</svg>
