<svg width="96" height="95" viewBox="0 0 96 95" fill="none" xmlns="http://www.w3.org/2000/svg">
<rect width="96" height="95" rx="14" fill="#77CBFB"/>
<path d="M69 45.599C69 51.0503 64.5664 55.489 59.1042 55.489H51.0848V45.0441C51.0848 43.8929 50.1536 42.9635 49 42.9635C47.8464 42.9635 46.9152 43.8929 46.9152 45.0441V55.489H38.8958C33.4336 55.489 29 51.0503 29 45.599C29 40.8968 32.3635 36.9158 36.811 35.9448C37.7144 30.0358 42.8291 25.5 49 25.5C55.157 25.5 60.2856 30.0358 61.189 35.9448C65.6365 36.9158 69 40.8967 69 45.599ZM51.0848 61.3981L52.8777 59.6087C53.6838 58.7903 55.0042 58.7903 55.8242 59.6087C56.6442 60.4271 56.6442 61.7448 55.8242 62.5493L50.5427 67.8203C50.3343 68.0422 50.0841 68.2226 49.7922 68.3474C49.5421 68.4445 49.2641 68.5 49 68.5C48.458 68.5 47.9298 68.2919 47.5268 67.8897L42.1759 62.5493C41.3558 61.7448 41.3558 60.4271 42.1759 59.6087C42.9958 58.7903 44.3162 58.7903 45.1223 59.6087L46.9152 61.3981V55.489L51.0848 55.489V61.3981Z" fill="white"/>
</svg>
