<svg width="96" height="95" viewBox="0 0 96 95" fill="none" xmlns="http://www.w3.org/2000/svg">
<rect width="96" height="95" rx="14" fill="#795AF5"/>
<path d="M27.7202 40.3978H69.2798C69.4396 40.3986 69.5951 40.346 69.7216 40.2483C69.848 40.1506 69.9382 40.0134 69.9777 39.8586C70.0173 39.7037 70.0039 39.5401 69.9398 39.3937C69.8756 39.2474 69.7644 39.1266 69.6238 39.0507L48.8439 27.586C48.7381 27.5295 48.62 27.5 48.5 27.5C48.38 27.5 48.2619 27.5295 48.1561 27.586L27.3762 39.0507C27.2356 39.1266 27.1244 39.2474 27.0602 39.3937C26.9961 39.5401 26.9827 39.7037 27.0223 39.8586C27.0618 40.0134 27.152 40.1506 27.2784 40.2483C27.4049 40.346 27.5604 40.3986 27.7202 40.3978ZM48.5 31.7993C48.9252 31.7993 49.3408 31.9254 49.6943 32.1616C50.0478 32.3978 50.3233 32.7335 50.486 33.1263C50.6487 33.5191 50.6913 33.9513 50.6083 34.3683C50.5254 34.7853 50.3207 35.1683 50.02 35.4689C49.7194 35.7696 49.3364 35.9743 48.9194 36.0572C48.5024 36.1402 48.0702 36.0976 47.6774 35.9349C47.2846 35.7722 46.9488 35.4967 46.7126 35.1432C46.4764 34.7897 46.3504 34.3741 46.3504 33.9489C46.3504 33.3788 46.5768 32.832 46.98 32.4289C47.3831 32.0258 47.9299 31.7993 48.5 31.7993ZM69.2798 63.3273H67.8467V61.1777C67.8467 60.9876 67.7713 60.8054 67.6369 60.671C67.5025 60.5366 67.3202 60.4611 67.1302 60.4611H29.8698C29.6798 60.4611 29.4975 60.5366 29.3631 60.671C29.2288 60.8054 29.1533 60.9876 29.1533 61.1777V63.3273H27.7202C27.5301 63.3273 27.3479 63.4028 27.2135 63.5372C27.0791 63.6716 27.0036 63.8538 27.0036 64.0438V66.91C27.0036 67.1001 27.0791 67.2823 27.2135 67.4167C27.3479 67.5511 27.5301 67.6266 27.7202 67.6266H69.2798C69.4699 67.6266 69.6521 67.5511 69.7865 67.4167C69.9209 67.2823 69.9964 67.1001 69.9964 66.91V64.0438C69.9964 63.8538 69.9209 63.6716 69.7865 63.5372C69.6521 63.4028 69.4699 63.3273 69.2798 63.3273ZM51.9115 59.028L50.664 43.3715L51.2802 41.8309H45.7198L46.336 43.3715L45.0885 59.028H51.9115ZM58.6176 41.8309L59.2339 43.3715L57.9864 59.028H64.8093L63.5618 43.3715L64.178 41.8309H58.6176ZM39.0136 59.028L37.7661 43.3715L38.3824 41.8309H32.822L33.4382 43.3715L32.1907 59.028H39.0136Z" fill="white"/>
</svg>
