<svg width="60" height="60" viewBox="0 0 60 60" fill="none" xmlns="http://www.w3.org/2000/svg">
<path d="M53.75 7.5H6.25C4.17893 7.5 2.5 9.17893 2.5 11.25V43.75C2.5 45.8211 4.17893 47.5 6.25 47.5H53.75C55.8211 47.5 57.5 45.8211 57.5 43.75V11.25C57.5 9.17893 55.8211 7.5 53.75 7.5Z" fill="#F8F9F9"/>
<path d="M12.5 33.75C13.8807 33.75 15 32.6307 15 31.25C15 29.8693 13.8807 28.75 12.5 28.75C11.1193 28.75 10 29.8693 10 31.25C10 32.6307 11.1193 33.75 12.5 33.75Z" fill="#BEC6C6"/>
<path d="M41.25 57.5H18.75C19.9392 56.312 20.8825 54.9012 21.526 53.3483C22.1694 51.7954 22.5004 50.1309 22.5 48.45V47.5H37.5V48.45C37.5019 51.8443 38.8506 55.0992 41.25 57.5Z" fill="#F8F9F9"/>
<path d="M57.5 37.5V43.75C57.5 44.7446 57.1049 45.6984 56.4016 46.4016C55.6984 47.1049 54.7446 47.5 53.75 47.5H6.25C5.25544 47.5 4.30161 47.1049 3.59835 46.4016C2.89509 45.6984 2.5 44.7446 2.5 43.75V37.5H57.5Z" fill="#BEC6C6"/>
<path d="M31.25 43.75H28.75C28.4185 43.75 28.1005 43.6183 27.8661 43.3839C27.6317 43.1495 27.5 42.8315 27.5 42.5C27.5 42.1685 27.6317 41.8505 27.8661 41.6161C28.1005 41.3817 28.4185 41.25 28.75 41.25H31.25C31.5815 41.25 31.8995 41.3817 32.1339 41.6161C32.3683 41.8505 32.5 42.1685 32.5 42.5C32.5 42.8315 32.3683 43.1495 32.1339 43.3839C31.8995 43.6183 31.5815 43.75 31.25 43.75Z" fill="#F8F9F9"/>
<path d="M53.75 6.25H6.25C4.92392 6.25 3.65215 6.77678 2.71447 7.71447C1.77678 8.65215 1.25 9.92392 1.25 11.25V43.75C1.25 45.0761 1.77678 46.3479 2.71447 47.2855C3.65215 48.2232 4.92392 48.75 6.25 48.75H21.25C21.1795 51.5354 20.1001 54.2005 18.2125 56.25H16.25C15.9185 56.25 15.6005 56.3817 15.3661 56.6161C15.1317 56.8505 15 57.1685 15 57.5C15 57.8315 15.1317 58.1495 15.3661 58.3839C15.6005 58.6183 15.9185 58.75 16.25 58.75H43.75C44.0815 58.75 44.3995 58.6183 44.6339 58.3839C44.8683 58.1495 45 57.8315 45 57.5C45 57.1685 44.8683 56.8505 44.6339 56.6161C44.3995 56.3817 44.0815 56.25 43.75 56.25H41.8C39.9029 54.2055 38.8182 51.5383 38.75 48.75H53.75C55.0761 48.75 56.3479 48.2232 57.2855 47.2855C58.2232 46.3479 58.75 45.0761 58.75 43.75V11.25C58.75 9.92392 58.2232 8.65215 57.2855 7.71447C56.3479 6.77678 55.0761 6.25 53.75 6.25ZM21.3875 56.25C22.8785 54.0286 23.6987 51.4249 23.75 48.75H36.25C36.3013 51.4249 37.1215 54.0286 38.6125 56.25H21.3875ZM56.25 43.75C56.25 44.413 55.9866 45.0489 55.5178 45.5178C55.0489 45.9866 54.413 46.25 53.75 46.25H6.25C5.58696 46.25 4.95107 45.9866 4.48223 45.5178C4.01339 45.0489 3.75 44.413 3.75 43.75V38.75H56.25V43.75ZM56.25 36.25H3.75V11.25C3.75 10.587 4.01339 9.95107 4.48223 9.48223C4.95107 9.01339 5.58696 8.75 6.25 8.75H53.75C54.413 8.75 55.0489 9.01339 55.5178 9.48223C55.9866 9.95107 56.25 10.587 56.25 11.25V36.25Z" fill="#414141"/>
<path d="M27.5 3.75V22.5C27.5 23.163 27.2366 23.7989 26.7678 24.2678C26.2989 24.7366 25.663 25 25 25H17.5L12.5 28.75V25H10C9.33696 25 8.70107 24.7366 8.23223 24.2678C7.76339 23.7989 7.5 23.163 7.5 22.5V3.75C7.5 3.08696 7.76339 2.45107 8.23223 1.98223C8.70107 1.51339 9.33696 1.25 10 1.25H25C25.663 1.25 26.2989 1.51339 26.7678 1.98223C27.2366 2.45107 27.5 3.08696 27.5 3.75Z" fill="#ED1B23"/>
<path d="M51.25 23.75H33.75C33.4185 23.75 33.1005 23.6183 32.8661 23.3839C32.6317 23.1495 32.5 22.8315 32.5 22.5C32.5 22.1685 32.6317 21.8505 32.8661 21.6161C33.1005 21.3817 33.4185 21.25 33.75 21.25H51.25C51.5815 21.25 51.8995 21.3817 52.1339 21.6161C52.3683 21.8505 52.5 22.1685 52.5 22.5C52.5 22.8315 52.3683 23.1495 52.1339 23.3839C51.8995 23.6183 51.5815 23.75 51.25 23.75ZM46.25 28.75H38.75C38.4185 28.75 38.1005 28.6183 37.8661 28.3839C37.6317 28.1495 37.5 27.8315 37.5 27.5C37.5 27.1685 37.6317 26.8505 37.8661 26.6161C38.1005 26.3817 38.4185 26.25 38.75 26.25H46.25C46.5815 26.25 46.8995 26.3817 47.1339 26.6161C47.3683 26.8505 47.5 27.1685 47.5 27.5C47.5 27.8315 47.3683 28.1495 47.1339 28.3839C46.8995 28.6183 46.5815 28.75 46.25 28.75ZM51.25 13.75H43.75C43.4185 13.75 43.1005 13.6183 42.8661 13.3839C42.6317 13.1495 42.5 12.8315 42.5 12.5C42.5 12.1685 42.6317 11.8505 42.8661 11.6161C43.1005 11.3817 43.4185 11.25 43.75 11.25H51.25C51.5815 11.25 51.8995 11.3817 52.1339 11.6161C52.3683 11.8505 52.5 12.1685 52.5 12.5C52.5 12.8315 52.3683 13.1495 52.1339 13.3839C51.8995 13.6183 51.5815 13.75 51.25 13.75ZM51.25 18.75H43.75C43.4185 18.75 43.1005 18.6183 42.8661 18.3839C42.6317 18.1495 42.5 17.8315 42.5 17.5C42.5 17.1685 42.6317 16.8505 42.8661 16.6161C43.1005 16.3817 43.4185 16.25 43.75 16.25H51.25C51.5815 16.25 51.8995 16.3817 52.1339 16.6161C52.3683 16.8505 52.5 17.1685 52.5 17.5C52.5 17.8315 52.3683 18.1495 52.1339 18.3839C51.8995 18.6183 51.5815 18.75 51.25 18.75Z" fill="#BEC6C6"/>
<path d="M38.75 11.25H33.75C33.0596 11.25 32.5 11.8096 32.5 12.5V17.5C32.5 18.1904 33.0596 18.75 33.75 18.75H38.75C39.4404 18.75 40 18.1904 40 17.5V12.5C40 11.8096 39.4404 11.25 38.75 11.25Z" fill="#BEC6C6"/>
<path d="M33.75 28.75C34.4404 28.75 35 28.1904 35 27.5C35 26.8096 34.4404 26.25 33.75 26.25C33.0596 26.25 32.5 26.8096 32.5 27.5C32.5 28.1904 33.0596 28.75 33.75 28.75Z" fill="#BEC6C6"/>
<path d="M46.25 33.75H38.75C38.4185 33.75 38.1005 33.6183 37.8661 33.3839C37.6317 33.1495 37.5 32.8315 37.5 32.5C37.5 32.1685 37.6317 31.8505 37.8661 31.6161C38.1005 31.3817 38.4185 31.25 38.75 31.25H46.25C46.5815 31.25 46.8995 31.3817 47.1339 31.6161C47.3683 31.8505 47.5 32.1685 47.5 32.5C47.5 32.8315 47.3683 33.1495 47.1339 33.3839C46.8995 33.6183 46.5815 33.75 46.25 33.75Z" fill="#BEC6C6"/>
<path d="M33.75 33.75C34.4404 33.75 35 33.1904 35 32.5C35 31.8096 34.4404 31.25 33.75 31.25C33.0596 31.25 32.5 31.8096 32.5 32.5C32.5 33.1904 33.0596 33.75 33.75 33.75Z" fill="#BEC6C6"/>
<path d="M22.5 13.75H17.5C17.1685 13.75 16.8505 13.6183 16.6161 13.3839C16.3817 13.1495 16.25 12.8315 16.25 12.5C16.25 12.1685 16.3817 11.8505 16.6161 11.6161C16.8505 11.3817 17.1685 11.25 17.5 11.25H22.5C22.8315 11.25 23.1495 11.3817 23.3839 11.6161C23.6183 11.8505 23.75 12.1685 23.75 12.5C23.75 12.8315 23.6183 13.1495 23.3839 13.3839C23.1495 13.6183 22.8315 13.75 22.5 13.75Z" fill="#F8F9F9"/>
<path d="M12.5 13.75C13.1904 13.75 13.75 13.1904 13.75 12.5C13.75 11.8096 13.1904 11.25 12.5 11.25C11.8096 11.25 11.25 11.8096 11.25 12.5C11.25 13.1904 11.8096 13.75 12.5 13.75Z" fill="#F8F9F9"/>
<path d="M22.5 7.5H17.5C17.1685 7.5 16.8505 7.3683 16.6161 7.13388C16.3817 6.89946 16.25 6.58152 16.25 6.25C16.25 5.91848 16.3817 5.60054 16.6161 5.36612C16.8505 5.1317 17.1685 5 17.5 5H22.5C22.8315 5 23.1495 5.1317 23.3839 5.36612C23.6183 5.60054 23.75 5.91848 23.75 6.25C23.75 6.58152 23.6183 6.89946 23.3839 7.13388C23.1495 7.3683 22.8315 7.5 22.5 7.5Z" fill="#F8F9F9"/>
<path d="M12.5 7.5C13.1904 7.5 13.75 6.94036 13.75 6.25C13.75 5.55964 13.1904 5 12.5 5C11.8096 5 11.25 5.55964 11.25 6.25C11.25 6.94036 11.8096 7.5 12.5 7.5Z" fill="#F8F9F9"/>
<path d="M22.5 20H17.5C17.1685 20 16.8505 19.8683 16.6161 19.6339C16.3817 19.3995 16.25 19.0815 16.25 18.75C16.25 18.4185 16.3817 18.1005 16.6161 17.8661C16.8505 17.6317 17.1685 17.5 17.5 17.5H22.5C22.8315 17.5 23.1495 17.6317 23.3839 17.8661C23.6183 18.1005 23.75 18.4185 23.75 18.75C23.75 19.0815 23.6183 19.3995 23.3839 19.6339C23.1495 19.8683 22.8315 20 22.5 20Z" fill="#F8F9F9"/>
<path d="M12.5 20C13.1904 20 13.75 19.4404 13.75 18.75C13.75 18.0596 13.1904 17.5 12.5 17.5C11.8096 17.5 11.25 18.0596 11.25 18.75C11.25 19.4404 11.8096 20 12.5 20Z" fill="#F8F9F9"/>
</svg>
