<svg width="60" height="60" viewBox="0 0 60 60" fill="none" xmlns="http://www.w3.org/2000/svg">
<path d="M53.75 25V30H33.75V25C33.7509 24.1232 33.9824 23.262 34.4212 22.5029C34.8599 21.7438 35.4907 21.1134 36.25 20.675C37.7375 19.825 38.8375 20 41.25 20L43.75 21.25L46.25 20C48.675 20 49.7875 19.8375 51.25 20.675C52.0093 21.1134 52.6401 21.7438 53.0788 22.5029C53.5176 23.262 53.7491 24.1232 53.75 25Z" fill="#F8F9F9"/>
<path d="M51.25 8.75V20.675C49.7625 19.825 48.6625 20 46.25 20L43.75 21.25L41.25 20C38.825 20 37.7125 19.8375 36.25 20.675V8.75C36.25 7.0924 36.9085 5.50269 38.0806 4.33058C39.2527 3.15848 40.8424 2.5 42.5 2.5H45C45.8208 2.5 46.6335 2.66166 47.3918 2.97575C48.1501 3.28984 48.8391 3.75022 49.4194 4.33058C49.9998 4.91095 50.4602 5.59994 50.7742 6.35823C51.0883 7.11651 51.25 7.92924 51.25 8.75ZM2.5 30H57.5V35H2.5V30ZM5 52.5H55V57.5H5V52.5Z" fill="#BEC6C6"/>
<path d="M5 35H55V52.5H5V35ZM26.25 30H6.25V25C6.25 23.6739 6.77678 22.4021 7.71447 21.4645C8.65215 20.5268 9.92392 20 11.25 20H13.75L16.25 21.25L18.75 20H21.25C22.5761 20 23.8479 20.5268 24.7855 21.4645C25.7232 22.4021 26.25 23.6739 26.25 25V30ZM16.25 16.25C14.9239 16.25 13.6521 15.7232 12.7145 14.7855C11.7768 13.8479 11.25 12.5761 11.25 11.25V7.5H21.25V11.25C21.25 12.5761 20.7232 13.8479 19.7855 14.7855C18.8479 15.7232 17.5761 16.25 16.25 16.25Z" fill="#F8F9F9"/>
<path d="M8.75 2.5H18.75C19.413 2.5 20.0489 2.76339 20.5178 3.23223C20.9866 3.70107 21.25 4.33696 21.25 5V7.5H12.5C11.5054 7.5 10.5516 7.10491 9.84835 6.40165C9.14509 5.69839 8.75 4.74456 8.75 3.75V2.5Z" fill="#BEC6C6"/>
<path d="M40 40H20C19.3096 40 18.75 40.5596 18.75 41.25V46.25C18.75 46.9404 19.3096 47.5 20 47.5H40C40.6904 47.5 41.25 46.9404 41.25 46.25V41.25C41.25 40.5596 40.6904 40 40 40Z" fill="#ED1B23"/>
<path d="M21.25 26.25H18.75C18.4185 26.25 18.1005 26.1183 17.8661 25.8839C17.6317 25.6495 17.5 25.3315 17.5 25C17.5 24.6685 17.6317 24.3505 17.8661 24.1161C18.1005 23.8817 18.4185 23.75 18.75 23.75H21.25C21.5815 23.75 21.8995 23.8817 22.1339 24.1161C22.3683 24.3505 22.5 24.6685 22.5 25C22.5 25.3315 22.3683 25.6495 22.1339 25.8839C21.8995 26.1183 21.5815 26.25 21.25 26.25Z" fill="#BEC6C6"/>
<path d="M43.75 16.25C42.7554 16.25 41.8016 15.8549 41.0984 15.1517C40.3951 14.4484 40 13.4946 40 12.5V8.75C41.7438 8.74847 43.4606 8.31926 45 7.5L46.25 8.75H47.5V12.5C47.5 13.4946 47.1049 14.4484 46.4016 15.1517C45.6984 15.8549 44.7446 16.25 43.75 16.25Z" fill="#F8F9F9"/>
<path d="M48.75 26.25H46.25C45.9185 26.25 45.6005 26.1183 45.3661 25.8839C45.1317 25.6495 45 25.3315 45 25C45 24.6685 45.1317 24.3505 45.3661 24.1161C45.6005 23.8817 45.9185 23.75 46.25 23.75H48.75C49.0815 23.75 49.3995 23.8817 49.6339 24.1161C49.8683 24.3505 50 24.6685 50 25C50 25.3315 49.8683 25.6495 49.6339 25.8839C49.3995 26.1183 49.0815 26.25 48.75 26.25Z" fill="#BEC6C6"/>
<path d="M57.5 28.75H55V25C55 24.0297 54.7741 23.0728 54.3402 22.2049C53.9063 21.3371 53.2762 20.5822 52.5 20V8.75C52.5 6.76088 51.7098 4.85322 50.3033 3.4467C48.8968 2.04018 46.9891 1.25 45 1.25H42.5C40.5109 1.25 38.6032 2.04018 37.1967 3.4467C35.7902 4.85322 35 6.76088 35 8.75V20C34.2238 20.5822 33.5938 21.3371 33.1598 22.2049C32.7259 23.0728 32.5 24.0297 32.5 25V28.75H27.5V25C27.5 23.3424 26.8415 21.7527 25.6694 20.5806C24.4973 19.4085 22.9076 18.75 21.25 18.75H18.75C18.375 18.75 18.4 18.75 16.25 19.85C13.5125 18.4875 14.625 18.75 11.25 18.75C9.5924 18.75 8.00269 19.4085 6.83058 20.5806C5.65848 21.7527 5 23.3424 5 25V28.75H2.5C2.16848 28.75 1.85054 28.8817 1.61612 29.1161C1.3817 29.3505 1.25 29.6685 1.25 30V35C1.25 35.3315 1.3817 35.6495 1.61612 35.8839C1.85054 36.1183 2.16848 36.25 2.5 36.25H3.75V57.5C3.75 57.8315 3.8817 58.1495 4.11612 58.3839C4.35054 58.6183 4.66848 58.75 5 58.75H55C55.3315 58.75 55.6495 58.6183 55.8839 58.3839C56.1183 58.1495 56.25 57.8315 56.25 57.5V36.25H57.5C57.8315 36.25 58.1495 36.1183 58.3839 35.8839C58.6183 35.6495 58.75 35.3315 58.75 35V30C58.75 29.6685 58.6183 29.3505 58.3839 29.1161C58.1495 28.8817 57.8315 28.75 57.5 28.75ZM37.5 8.75C37.5 7.42392 38.0268 6.15215 38.9645 5.21447C39.9022 4.27678 41.1739 3.75 42.5 3.75H45C46.3261 3.75 47.5979 4.27678 48.5355 5.21447C49.4732 6.15215 50 7.42392 50 8.75V18.875C48.7574 18.7075 47.501 18.6656 46.25 18.75C45.875 18.75 45.9 18.75 43.75 19.85C41.8375 18.9 41.6625 18.75 41.25 18.75C39.999 18.6656 38.7426 18.7075 37.5 18.875V8.75ZM35 25C35 24.0054 35.3951 23.0516 36.0984 22.3484C36.8016 21.6451 37.7554 21.25 38.75 21.25H40.95L43.1875 22.3625C43.362 22.4504 43.5546 22.4962 43.75 22.4962C43.9454 22.4962 44.138 22.4504 44.3125 22.3625L46.55 21.25H48.75C49.7446 21.25 50.6984 21.6451 51.4017 22.3484C52.1049 23.0516 52.5 24.0054 52.5 25V28.75H35V25ZM7.5 25C7.5 24.0054 7.89509 23.0516 8.59835 22.3484C9.30161 21.6451 10.2554 21.25 11.25 21.25H13.45L15.6875 22.3625C15.862 22.4504 16.0546 22.4962 16.25 22.4962C16.4454 22.4962 16.638 22.4504 16.8125 22.3625L19.05 21.25H21.25C22.2446 21.25 23.1984 21.6451 23.9017 22.3484C24.6049 23.0516 25 24.0054 25 25V28.75H7.5V25ZM53.75 56.25H6.25V53.75H53.75V56.25ZM53.75 51.25H6.25V36.25H53.75V51.25ZM56.25 33.75H3.75V31.25H56.25V33.75Z" fill="#414141"/>
<path d="M10 8.05V11.25C10 12.9076 10.6585 14.4973 11.8306 15.6694C13.0027 16.8415 14.5924 17.5 16.25 17.5C17.9076 17.5 19.4973 16.8415 20.6694 15.6694C21.8415 14.4973 22.5 12.9076 22.5 11.25V5C22.5 4.00544 22.1049 3.05161 21.4017 2.34835C20.6984 1.64509 19.7446 1.25 18.75 1.25H8.75C8.41848 1.25 8.10054 1.3817 7.86612 1.61612C7.6317 1.85054 7.5 2.16848 7.5 2.5V3.75C7.50527 4.62257 7.73879 5.47857 8.17737 6.23292C8.61595 6.98728 9.24431 7.61372 10 8.05ZM20 11.25C20 12.2446 19.6049 13.1984 18.9017 13.9017C18.1984 14.6049 17.2446 15 16.25 15C15.2554 15 14.3016 14.6049 13.5983 13.9017C12.8951 13.1984 12.5 12.2446 12.5 11.25V8.75H20V11.25ZM18.75 3.75C19.0815 3.75 19.3995 3.8817 19.6339 4.11612C19.8683 4.35054 20 4.66848 20 5V6.25H12.5C11.837 6.25 11.2011 5.98661 10.7322 5.51777C10.2634 5.04893 10 4.41304 10 3.75H18.75Z" fill="#414141"/>
</svg>
