<svg width="96" height="95" viewBox="0 0 96 95" fill="none" xmlns="http://www.w3.org/2000/svg">
<rect width="96" height="95" rx="14" fill="#FFBF44"/>
<g clip-path="url(#clip0_3931_2193)">
<g clip-path="url(#clip1_3931_2193)">
<path d="M60.676 35.5292C62.1323 36.6245 63.436 37.9092 64.5526 39.3492L66.8292 37.0798L62.9749 33.2376L60.676 35.5292ZM30.1719 37.0798L32.4142 39.315C33.5338 37.8773 34.8403 36.5954 36.2989 35.5032L34.0261 33.2376L30.1719 37.0798ZM48.47 31.4619C49.4381 31.4619 50.4032 31.5301 51.3567 31.6656V25.5H45.9006V31.6235C46.7528 31.5158 47.611 31.4619 48.47 31.4619ZM48.47 34.9217C39.1804 34.9217 31.6228 42.4533 31.6228 51.7108C31.6228 60.9684 39.1804 68.5 48.47 68.5C57.7595 68.5 65.317 60.9684 65.317 51.7107C65.317 42.4531 57.7595 34.9217 48.47 34.9217ZM47.8617 61.2941C46.677 61.2941 45.7835 60.3712 45.7835 59.1474C45.7835 57.889 46.6681 56.9757 47.8868 56.9757C49.0911 56.9757 49.9652 57.889 49.9652 59.1474C49.9652 60.3913 49.0806 61.2941 47.8617 61.2941ZM50.7498 51.1235C49.768 52.2803 49.3955 53.2206 49.4634 54.3702L49.5129 55.6539H46.3787L46.2867 54.4612C46.1136 52.878 46.6974 51.2334 47.9756 49.7045C48.9983 48.5036 49.5884 47.6241 49.5884 46.6697C49.5884 45.6623 48.9874 45.142 47.8021 45.1231C46.7393 45.1232 45.8001 45.5872 45.0076 46.2592L43.9569 43.5101C45.1518 42.5484 46.7483 42.1274 48.2622 42.1274C51.5654 42.1274 53.0439 44.2709 53.0439 46.3952C53.044 48.2596 52.0497 49.5848 50.7498 51.1235Z" fill="white"/>
</g>
</g>
<defs>
<clipPath id="clip0_3931_2193">
<rect width="43" height="43" fill="white" transform="translate(27 25.5)"/>
</clipPath>
<clipPath id="clip1_3931_2193">
<rect width="43" height="43" fill="white" transform="translate(27 25.5)"/>
</clipPath>
</defs>
</svg>
