<svg width="96" height="95" viewBox="0 0 96 95" fill="none" xmlns="http://www.w3.org/2000/svg">
<rect width="96" height="95" rx="14" fill="#F96073"/>
<path d="M62.9941 37.875H33.0449C31.657 37.875 30.5312 39.0008 30.5312 40.3887V63.1191C30.5312 64.507 31.657 65.6328 33.0449 65.6328H62.9941C64.382 65.6328 65.5078 64.507 65.5078 63.1191V40.3887C65.5078 39.0008 64.382 37.875 62.9941 37.875ZM53.9449 52.9313L44.0922 59.1059C43.9203 59.2176 43.7184 59.2691 43.5207 59.2691C43.3445 59.2691 43.1684 59.2262 43.0051 59.1359C42.6613 58.9469 42.4508 58.5859 42.4508 58.1949V45.8543C42.4508 45.4633 42.6613 45.1066 43.0008 44.9176C43.3402 44.7285 43.757 44.7371 44.0879 44.9434L53.9406 51.1137C54.2543 51.3113 54.4434 51.6508 54.4434 52.0246C54.4434 52.3984 54.2586 52.7336 53.9449 52.9313ZM36.0914 36.4828H34.3727C34.3727 34.5492 35.941 32.9766 37.8703 32.9766H58.1773C60.1023 32.9766 61.6707 34.5449 61.6707 36.4742H59.952C59.952 35.4945 59.157 34.6953 58.1773 34.6953H37.8703C36.8863 34.6953 36.0914 35.4988 36.0914 36.4828ZM42.0684 31.6316H40.3496C40.3496 30.3812 41.3637 29.3672 42.6141 29.3672H53.4293C54.6754 29.3672 55.6895 30.3813 55.6895 31.6273H53.9707C53.9707 31.3309 53.7258 31.0859 53.4293 31.0859H42.6141C42.3133 31.0859 42.0684 31.3309 42.0684 31.6316Z" fill="white"/>
</svg>
